# xmcd
#
# Track frame offsets: 
#        150
#        14879
#        34543
#        49450
#        70783
#        88383
#        106226
#        122171
#        134104
#        145528
#        164947
#        180486
#        211448
#        222426
#        234047
#        248688
#        268039
#
# Disc length: 4017 seconds
#
# Revision: 0
# Processed by: cddbd v1.5.2PL0 Copyright (c) Steve Scherf et al.
# Submitted via: ExactAudioCopy v0.99pb3
#
DISCID=060faf11
DTITLE=Ruelle en chantier - Un demi et six pailles
DYEAR=2009
DGENRE=Chanson
TTITLE0=Ma chambre
TTITLE1=Telephone fixe
TTITLE2=Danse
TTITLE3=La goutte
TTITLE4=Paris
TTITLE5=Voltaire
TTITLE6=Comme un con
TTITLE7=Belle journee
TTITLE8=Les bombasses
TTITLE9=Jacky
TTITLE10=Reves perdus
TTITLE11=Les retrouvailles
TTITLE12=Je vais etre papa
TTITLE13=St Germain des fosses
TTITLE14=Tendrement
TTITLE15=Vent sale
TTITLE16=Rue Doisneau
EXTD=
EXTT0=
EXTT1=
EXTT2=
EXTT3=
EXTT4=
EXTT5=
EXTT6=
EXTT7=
EXTT8=
EXTT9=
EXTT10=
EXTT11=
EXTT12=
EXTT13=
EXTT14=
EXTT15=
EXTT16=
PLAYORDER=
